# Alias OBJ Model File
# Exported from SketchUp, (c) 2000-2006 Google, Inc.
# File units = meters

mtllib fulcrum.mtl

g Mesh1 Fulcrum1 Model

usemtl FrontColor
v 1 0 -0
vt 0 -17.6068
vn -0.894427 -0.447214 -0
v 0.5 1 -0.5
vt -19.685 26.4103
v 1 0 -1
vt -39.3701 -17.6068
f 1/1/1 2/2/1 3/3/1

vt -39.3701 -6.45697e-016
vn -3.28014e-017 -0.447214 -0.894427
v 0 0 -0
vt 0 0
vt -19.685 44.0171
f 1/4/2 4/5/2 2/6/2

v 0 0 -1
vt 0 39.3701
vn 0 1 -0
vt 39.3701 0
vt 39.3701 39.3701
f 5/7/3 4/5/3 1/8/3 3/9/3 

vt 39.3701 0
vn 0.894427 -0.447214 -0
vt 19.685 44.0171
f 5/10/4 2/11/4 4/5/4

vt -1.44382e-015 -17.6068
vn -3.28014e-017 -0.447214 0.894427
vt 39.3701 -17.6068
vt 19.685 26.4103
f 5/12/5 3/13/5 2/14/5

